<svg width="489" height="552" viewBox="0 0 489 552" fill="none" xmlns="http://www.w3.org/2000/svg">
<g filter="url(#filter0_d_176_2182)">
<path fill-rule="evenodd" clip-rule="evenodd" d="M221.188 10.5123C181.822 14.4613 148.655 24.0043 115.407 40.9483C89.7305 54.0343 55.6975 78.6893 49.4435 88.7353C45.3305 95.3423 47.0835 104.371 53.4155 109.201C60.7155 114.768 67.5635 113.975 76.3465 106.545C112.899 75.6203 149.342 57.0443 191.56 47.8163C225.002 40.5063 264.232 40.5213 297.188 47.8563C339.465 57.2653 375.933 75.8993 412.049 106.545C420.806 113.976 427.659 114.77 434.961 109.201C441.293 104.371 443.046 95.3423 438.933 88.7353C435.048 82.4943 417.438 68.1643 398.188 55.5793C359.955 30.5833 316.794 15.4913 270.332 10.8713C260.786 9.92233 229.362 9.69233 221.188 10.5123ZM225.323 72.8833C151.814 78.5633 83.3605 114.965 36.8275 173.12C23.7935 189.41 20.1885 195.342 20.1885 200.503C20.1885 210.181 26.8095 217.072 36.1075 217.072C42.3025 217.072 46.9035 214.399 50.7025 208.592C60.9785 192.887 81.5675 170.514 97.6885 157.535C119.891 139.66 146.621 124.93 172.188 116.481C246.242 92.0093 326.462 106.594 388.688 155.842C404.973 168.731 423.021 187.875 435.353 205.341C438.459 209.741 442.438 214.18 444.194 215.206C448.939 217.978 456.308 217.689 461.058 214.546C469.415 209.015 470.402 199.056 463.582 189.08C450.84 170.444 427.608 145.37 410.188 131.454C376.962 104.912 337.168 85.9643 297.516 77.8063C275.094 73.1923 246.529 71.2443 225.323 72.8833ZM226.688 135.525C144.065 142.699 72.8965 200.556 46.7055 281.841C34.8265 318.707 32.9065 359.528 41.2755 397.272C46.6825 421.66 58.7105 449.83 72.6865 470.841C82.2555 485.227 87.5935 490.479 93.5485 491.372C105.943 493.231 116.239 479.575 110.626 468.721C109.767 467.059 107.123 463.144 104.751 460.02C102.379 456.897 98.3515 450.9 95.8015 446.695C62.5345 391.835 59.5135 324.106 87.7835 266.876C112.428 216.981 156.475 182.263 209.688 170.788C225.261 167.429 255.53 166.921 272.091 169.74C334.616 180.381 387.022 226.863 409.152 291.308C417.195 314.731 421.963 349.732 419.377 366.367C416.905 382.264 407.156 395.713 393.47 402.105C387.168 405.049 385.909 405.275 375.688 405.307C365.362 405.339 364.276 405.146 357.965 402.156C350.319 398.534 342.202 391.428 338.506 385.12C332.883 375.525 331.962 371.435 331.127 352.341C330.205 331.258 328.384 322.92 321.737 309.341C302.135 269.293 255.909 250.166 215.493 265.378C199.277 271.482 182.217 285.995 172.796 301.701C156.118 329.506 153.374 361.9 164.771 396.445C179.545 441.227 221.514 490.097 264.188 512.212C287.055 524.062 301.061 524.916 307.914 514.878C311.169 510.109 311.732 505.555 309.718 500.281C307.387 494.177 302.948 491.002 295.043 489.786C282.205 487.812 262.141 475.236 243.499 457.481C201.099 417.099 181.853 368.9 193.769 332.94C196.82 323.732 203.742 312.405 209.81 306.688C230.196 287.482 261.241 288.187 281.607 308.317C292.272 318.858 298.158 333.023 298.222 348.301C298.353 379.747 304.838 398.281 321.688 415.367C350.41 444.494 393.227 446.36 425.054 419.873C435.63 411.072 444.539 397.108 449.346 381.798C451.497 374.949 451.685 372.63 451.652 353.341C451.613 330.225 450.256 318.722 445.222 298.841C437.577 268.651 423.641 239.863 404.967 215.69C365.091 164.071 305.237 134.224 243.188 135.017C236.313 135.105 228.888 135.334 226.688 135.525ZM221.188 199.254C174.797 207.447 135.861 236.069 114.262 277.856C93.4025 318.214 91.2155 360.202 107.674 404.341C115.886 426.363 133.856 457.758 151.902 481.612C161.682 494.539 179.589 515.282 183.629 518.364C192.805 525.362 206.181 521.01 209.127 510.067C211.057 502.901 209.37 499.325 198.081 486.64C176.708 462.627 158.501 436.327 146.645 412.341C133.36 385.465 128.433 365.52 129.49 342.899C131.562 298.559 157.483 259.1 196.575 240.781C265.747 208.366 345.076 252.378 357.692 330.169C358.511 335.214 359.182 342.168 359.184 345.623C359.189 353.327 360.806 357.42 365.458 361.505C374.336 369.3 387.987 364.727 391.174 352.892C392.393 348.366 391.037 329.933 388.606 317.984C384.519 297.891 373.644 273.61 361.459 257.375C339.476 228.084 308.976 208.381 273.169 200.34C263.087 198.075 231.587 197.418 221.188 199.254ZM235.036 324.859C228.805 328.15 227.188 332.009 227.188 343.578C227.188 369.809 237.59 401.319 254.675 426.841C278.918 463.055 315.664 487.944 348.63 490.478C355.326 490.993 357.506 490.784 360.562 489.334C368.987 485.336 372.604 474.912 368.253 467.17C364.813 461.05 360.929 459.009 350.646 457.915C328.569 455.567 307.414 442.597 289.598 420.486C271.594 398.142 261.381 372.521 259.373 344.661C258.611 334.077 258.268 332.635 255.728 329.305C250.84 322.897 242.245 321.05 235.036 324.859Z" fill="#407BFF"/>
</g>
<defs>
<filter id="filter0_d_176_2182" x="0.188477" y="0.0102539" width="487.899" height="551.796" filterUnits="userSpaceOnUse" color-interpolation-filters="sRGB">
<feFlood flood-opacity="0" result="BackgroundImageFix"/>
<feColorMatrix in="SourceAlpha" type="matrix" values="0 0 0 0 0 0 0 0 0 0 0 0 0 0 0 0 0 0 127 0" result="hardAlpha"/>
<feOffset dy="10"/>
<feGaussianBlur stdDeviation="10"/>
<feComposite in2="hardAlpha" operator="out"/>
<feColorMatrix type="matrix" values="0 0 0 0 0 0 0 0 0 0 0 0 0 0 0 0 0 0 0.25 0"/>
<feBlend mode="normal" in2="BackgroundImageFix" result="effect1_dropShadow_176_2182"/>
<feBlend mode="normal" in="SourceGraphic" in2="effect1_dropShadow_176_2182" result="shape"/>
</filter>
</defs>
</svg>
